<svg width="150" height="150" viewBox="0 0 150 150" fill="none" xmlns="http://www.w3.org/2000/svg">
<path fill-rule="evenodd" clip-rule="evenodd" d="M64.3484 37.1389C67.5006 35.3784 71.1331 34.375 75 34.375C78.8669 34.375 82.4994 35.3784 85.6516 37.1389L87.9575 34.8327C88.5678 34.2224 89.5572 34.2224 90.1675 34.8327C90.7775 35.4429 90.7775 36.4322 90.1675 37.0424L88.3162 38.8936C93.5206 42.8924 96.875 49.1795 96.875 56.25H53.125C53.125 49.1795 56.4794 42.8924 61.6838 38.8936L59.8325 37.0424C59.2225 36.4322 59.2225 35.4429 59.8325 34.8327C60.4428 34.2224 61.4322 34.2224 62.0425 34.8327L64.3484 37.1389ZM68.75 46.875C68.75 48.6009 67.3509 50 65.625 50C63.8991 50 62.5 48.6009 62.5 46.875C62.5 45.1491 63.8991 43.75 65.625 43.75C67.3509 43.75 68.75 45.1491 68.75 46.875ZM84.375 50C86.1009 50 87.5 48.6009 87.5 46.875C87.5 45.1491 86.1009 43.75 84.375 43.75C82.6491 43.75 81.25 45.1491 81.25 46.875C81.25 48.6009 82.6491 50 84.375 50Z" fill="#87C527"/>
<path d="M40.625 64.0625C40.625 61.4737 42.7237 59.375 45.3125 59.375C47.9013 59.375 50 61.4737 50 64.0625V82.8125C50 85.4013 47.9013 87.5 45.3125 87.5C42.7237 87.5 40.625 85.4013 40.625 82.8125V64.0625Z" fill="#87C527"/>
<path d="M62.5 100V110.938C62.5 113.526 64.5987 115.625 67.1875 115.625C69.7763 115.625 71.875 113.526 71.875 110.938V100H78.125V110.938C78.125 113.526 80.2237 115.625 82.8125 115.625C85.4013 115.625 87.5 113.526 87.5 110.938V100H90.625C94.0769 100 96.875 97.2019 96.875 93.75V59.375H53.125V93.75C53.125 97.2019 55.9232 100 59.375 100H62.5Z" fill="#87C527"/>
<path d="M100 64.0625C100 61.4737 102.099 59.375 104.688 59.375C107.276 59.375 109.375 61.4737 109.375 64.0625V82.8125C109.375 85.4013 107.276 87.5 104.688 87.5C102.099 87.5 100 85.4013 100 82.8125V64.0625Z" fill="#87C527"/>
</svg>
