<svg width="150" height="150" viewBox="0 0 150 150" fill="none" xmlns="http://www.w3.org/2000/svg">
<path d="M71.6875 102.575L92.6125 98.875L92.8063 98.8312L82.0438 86.025C78.4344 81.754 74.8448 77.4665 71.275 73.1625C71.275 73.1 82.3938 42.4812 82.4563 42.375C88.6079 52.9065 94.7204 63.4607 100.794 74.0375L119.231 106.006L119.375 106.25L50.95 106.244L71.6875 102.575ZM30.625 98.675C30.625 98.6563 35.6938 89.85 41.8938 79.1062L53.1687 59.5625L66.3063 48.5375C73.5313 42.4813 79.4625 37.5 79.4812 37.5C79.4347 37.6849 79.3654 37.8633 79.275 38.0313L65 68.6312L51 98.6812L40.8125 98.6938C35.2062 98.7 30.625 98.6938 30.625 98.675Z" fill="#0089D6"/>
</svg>
