<svg width="150" height="150" viewBox="0 0 150 150" fill="none" xmlns="http://www.w3.org/2000/svg">
<path d="M75.1547 51.3769C95.7426 35.394 85.1763 25 85.1763 25C86.7488 41.5231 68.1651 45.4245 63.1835 56.7787C59.7844 64.5266 65.5113 71.3103 75.1479 79.8606C74.296 77.9669 72.9819 76.1269 71.6519 74.2641C67.1147 67.9103 62.3885 61.2913 75.1547 51.3769Z" fill="#E76F00"/>
<path d="M78.4427 83.365C78.4427 83.365 84.6365 78.3678 79.7315 72.8144C63.104 53.9739 97.9171 45.4238 97.9171 45.4238C76.6621 55.6634 79.8352 61.7412 85.1777 69.125C90.8977 77.0425 78.4427 83.365 78.4427 83.365Z" fill="#E76F00"/>
<path d="M96.6784 98.2666C115.757 88.5172 106.936 79.1484 100.779 80.4106C99.2696 80.7194 98.5968 80.9872 98.5968 80.9872C98.5968 80.9872 99.1571 80.1241 100.227 79.7503C112.408 75.5394 121.776 92.1706 96.2949 98.7578C96.2949 98.7578 96.5902 98.4984 96.6784 98.2666Z" fill="#5382A1"/>
<path d="M56.9774 85.928C45.0403 84.3605 63.5228 80.0436 63.5228 80.0436C63.5228 80.0436 56.3453 79.5677 47.5178 83.7636C37.0799 88.7289 73.3371 90.9871 92.1056 86.133C94.0568 84.8227 96.7537 83.6871 96.7537 83.6871C96.7537 83.6871 89.0734 85.0358 81.4246 85.6705C72.0656 86.4414 62.0178 86.5917 56.9774 85.928Z" fill="#5382A1"/>
<path d="M61.5193 95.2364C54.8626 94.5595 59.2212 91.3867 59.2212 91.3867C41.9961 97.0086 68.805 103.384 92.874 96.4627C90.3156 95.5758 88.6887 93.9536 88.6887 93.9536C76.9253 96.1811 70.1275 96.1098 61.5193 95.2364Z" fill="#5382A1"/>
<path d="M64.4196 105.31C57.7681 104.558 61.654 102.336 61.654 102.336C46.0179 106.632 71.1646 115.508 91.0721 107.118C87.8115 105.871 85.4768 104.432 85.4768 104.432C76.5965 106.084 72.4777 106.214 64.4196 105.31Z" fill="#5382A1"/>
<path d="M106.058 110.434C106.058 110.434 108.934 112.764 102.891 114.566C91.4003 117.989 55.0654 119.023 44.9717 114.703C41.3433 113.151 48.1476 110.997 50.288 110.544C52.5202 110.068 53.7958 110.157 53.7958 110.157C49.7606 107.362 27.714 115.646 42.5972 118.018C83.1859 124.491 116.587 115.103 106.058 110.434Z" fill="#5382A1"/>
<path d="M112.5 115.525C111.834 124.047 83.7115 125.839 65.398 124.686C53.4509 123.933 51.0565 122.05 51.0215 122.023C62.4558 123.876 81.734 124.214 97.3649 121.321C111.22 118.756 112.5 115.525 112.5 115.525Z" fill="#5382A1"/>
</svg>
