<svg width="150" height="150" viewBox="0 0 150 150" fill="none" xmlns="http://www.w3.org/2000/svg">
<g clip-path="url(#clip0_629_6929)">
<path d="M74.9995 120.95C49.7993 120.95 29.3742 100.525 29.3742 75.3244C29.3434 50.0933 49.7685 29.6682 74.9995 29.6682C100.2 29.6682 120.625 50.0933 120.625 75.2936C120.625 100.494 100.2 120.95 74.9995 120.95ZM74.9687 25.2012C47.3963 25.2012 24.9688 47.5363 24.9688 74.9855C24.9688 102.465 47.3963 124.801 74.9687 124.801C102.541 124.801 124.999 102.465 124.999 75.0163C124.999 47.5363 102.572 25.2012 74.9687 25.2012Z" fill="#00A1DF"/>
<path d="M62.3089 97.3512C54.762 93.8071 49.5238 85.7984 49.5238 76.5245C49.5238 71.6251 50.972 67.0976 53.4667 63.4006L69.9188 87.9273H79.8734L96.3255 63.4006C98.8201 67.0976 100.268 71.6581 100.268 76.5245C100.268 85.1808 95.7108 92.6977 88.9944 96.5836L92.1667 108.721C104.244 102.499 112.466 89.9272 112.466 75.4181C112.466 61.7095 105.102 49.752 94.1366 43.2245L75.037 72.7075L56.1172 43.1016C45.0232 49.602 37.5723 61.6465 37.5723 75.4181C37.5723 90.4519 46.4175 103.423 59.1996 109.369L62.3089 97.3512Z" fill="#00A1DF"/>
</g>
<defs>
<clipPath id="clip0_629_6929">
<rect width="100" height="100" fill="white" transform="translate(25 25)"/>
</clipPath>
</defs>
</svg>
