<svg width="150" height="150" viewBox="0 0 150 150" fill="none" xmlns="http://www.w3.org/2000/svg">
<path fill-rule="evenodd" clip-rule="evenodd" d="M65.6762 31.25C58.8103 31.25 53.2445 36.6392 53.2445 43.287V51.6204H74.7609V53.9352H43.6817C36.8158 53.9352 31.25 59.3244 31.25 65.9722V84.0278C31.25 90.6756 36.8158 96.0647 43.6817 96.0647H50.8538V85.8797C50.8538 79.2319 56.4197 73.8425 63.2856 73.8425H86.2362C92.0459 73.8425 96.7553 69.2825 96.7553 63.6575V43.287C96.7553 36.6392 91.1897 31.25 84.3237 31.25H65.6762ZM62.8075 46.0648C65.1841 46.0648 67.1106 44.1993 67.1106 41.8982C67.1106 39.597 65.1841 37.7315 62.8075 37.7315C60.4306 37.7315 58.5041 39.597 58.5041 41.8982C58.5041 44.1993 60.4306 46.0648 62.8075 46.0648Z" fill="url(#paint0_linear_629_6928)"/>
<path fill-rule="evenodd" clip-rule="evenodd" d="M84.3232 118.75C91.1892 118.75 96.7551 113.361 96.7551 106.713V98.38H75.2385V96.0653H106.318C113.184 96.0653 118.749 90.6759 118.749 84.0281V65.9725C118.749 59.3247 113.184 53.9355 106.318 53.9355H99.1457V64.1206C99.1457 70.7687 93.5798 76.1578 86.7142 76.1578H63.7632C57.9535 76.1578 53.2441 80.7178 53.2441 86.3428V106.713C53.2441 113.361 58.8101 118.75 65.6757 118.75H84.3232ZM87.1923 103.936C84.8154 103.936 82.8889 105.801 82.8889 108.102C82.8889 110.403 84.8154 112.269 87.1923 112.269C89.5689 112.269 91.4954 110.403 91.4954 108.102C91.4954 105.801 89.5689 103.936 87.1923 103.936Z" fill="url(#paint1_linear_629_6928)"/>
<defs>
<linearGradient id="paint0_linear_629_6928" x1="64.0028" y1="31.25" x2="64.0028" y2="96.0647" gradientUnits="userSpaceOnUse">
<stop stop-color="#327EBD"/>
<stop offset="1" stop-color="#1565A7"/>
</linearGradient>
<linearGradient id="paint1_linear_629_6928" x1="85.997" y1="53.9355" x2="85.997" y2="118.75" gradientUnits="userSpaceOnUse">
<stop stop-color="#FFDA4B"/>
<stop offset="1" stop-color="#F9C600"/>
</linearGradient>
</defs>
</svg>
